<?xml version="1.0" encoding="utf-8"?>
<!-- Generator: Adobe Illustrator 21.1.0, SVG Export Plug-In . SVG Version: 6.00 Build 0)  -->
<svg version="1.1" id="Layer_1" xmlns="http://www.w3.org/2000/svg" xmlns:xlink="http://www.w3.org/1999/xlink" x="0px" y="0px"
	 viewBox="0 0 605.5 277.1" style="enable-background:new 0 0 605.5 277.1;" xml:space="preserve">
<style type="text/css">
	.st0{fill:#FFFFFF;}
</style>
<g>
	<path class="st0" d="M41.7,102.6H60v126.2c0,11.7-1.2,20.5-3.6,26.1c-2.4,5.7-6.3,10.2-11.7,13.5c-5.4,3.4-11.8,5.1-19.4,5.1
		c-1.2,0-3.2-0.2-6-0.6L16,256h4.6c5.2,0,9.3-0.7,12.1-2c2.8-1.3,5-3.5,6.6-6.7c1.6-3.2,2.5-10.1,2.5-20.5V102.6z"/>
	<path class="st0" d="M129.2,101.9h12.9l57.3,128.6h-18.7l-17.1-37.9H109l-15.9,37.9H74.2L129.2,101.9z M156.1,176.4L135.4,130
		l-19.1,46.4H156.1z"/>
	<path class="st0" d="M245,176.9l-13.9-8.4c-8.7-5.4-14.9-10.6-18.6-15.7c-3.7-5.2-5.5-11.2-5.5-17.9c0-10,3.5-18.2,10.5-24.5
		c7-6.3,16.1-9.5,27.3-9.5c10.6,0,20.4,3,29.3,9.1v20.8c-9.2-8.9-19.1-13.3-29.8-13.3c-6,0-10.9,1.4-14.7,4.1
		c-3.9,2.8-5.8,6.3-5.8,10.6c0,3.8,1.5,7.4,4.3,10.8c2.8,3.3,7.3,6.9,13.6,10.5l14.1,8.3c15.6,9.3,23.4,21.2,23.4,35.6
		c0,10.3-3.5,18.6-10.3,25c-6.9,6.4-15.8,9.6-26.8,9.6c-12.6,0-24.1-3.9-34.5-11.7v-23.3c9.9,12.5,21.4,18.8,34.3,18.8
		c5.7,0,10.5-1.6,14.3-4.8c3.8-3.2,5.7-7.1,5.7-12C261.8,191.3,256.2,183.9,245,176.9"/>
	<path class="st0" d="M409.4,200.9V221c-13.5,7.3-29,11-46.6,11c-14.2,0-26.3-2.9-36.3-8.7c-9.9-5.7-17.9-13.6-23.7-23.7
		c-5.8-10.1-8.7-20.9-8.7-32.7c0-18.6,6.6-34.3,19.9-47c13.3-12.7,29.6-19.1,49.1-19.1c13.4,0,28.3,3.5,44.8,10.6v19.6
		c-15-8.5-29.6-12.8-43.9-12.8c-14.6,0-26.8,4.6-36.5,13.9c-9.7,9.3-14.5,20.8-14.5,34.8c0,14,4.8,25.5,14.3,34.6
		c9.5,9,21.6,13.5,36.5,13.5C379.5,215.1,394.6,210.4,409.4,200.9"/>
	<path class="st0" d="M494.6,100.8c19.7,0,36.2,6.2,49.3,18.8c13.1,12.5,19.7,28.2,19.7,47c0,18.8-6.6,34.4-19.9,46.8
		c-13.3,12.4-30.1,18.6-50.2,18.6c-19.3,0-35.4-6.2-48.1-18.6c-12.9-12.4-19.3-27.8-19.3-46.4c0-19.1,6.5-34.9,19.4-47.4
		C458.5,107.1,474.8,100.8,494.6,100.8 M495.3,118.2c-14.6,0-26.6,4.6-36.1,13.8c-9.4,9.1-14.1,20.8-14.1,35.1
		c0,13.7,4.7,25.2,14.1,34.4c9.5,9.2,21.3,13.7,35.5,13.7c14.3,0,26.1-4.7,35.7-14c9.5-9.3,14.4-21,14.4-34.9
		c0-13.5-4.8-24.9-14.4-34.2C521,122.8,509.3,118.2,495.3,118.2"/>
	<g>
		<path class="st0" d="M597.5,118.7c0,8.8-6.9,15.7-15.9,15.7c-8.9,0-16-6.9-16-15.7c0-8.6,7.1-15.5,16-15.5
			C590.6,103.2,597.5,110.1,597.5,118.7z M569.7,118.7c0,6.9,5.1,12.4,12.1,12.4c6.8,0,11.8-5.5,11.8-12.3c0-6.9-5-12.5-11.9-12.5
			C574.7,106.3,569.7,111.9,569.7,118.7z M579.2,126.8h-3.6v-15.5c1.4-0.3,3.4-0.5,5.9-0.5c2.9,0,4.2,0.5,5.4,1.1
			c0.9,0.7,1.5,1.9,1.5,3.4c0,1.7-1.3,3-3.2,3.6v0.2c1.5,0.6,2.4,1.7,2.8,3.8c0.5,2.4,0.8,3.3,1.1,3.9h-3.9c-0.5-0.6-0.8-2-1.2-3.8
			c-0.3-1.7-1.2-2.5-3.2-2.5h-1.7V126.8z M579.3,118h1.7c2,0,3.6-0.7,3.6-2.3c0-1.4-1-2.4-3.3-2.4c-0.9,0-1.6,0.1-2,0.2V118z"/>
	</g>
	<path class="st0" d="M69.1,89.1H41.5V7.5h21.4c6.8,0,12,1,15.8,2.7c3.8,1.8,6.7,4.4,8.6,7.5c2,3.2,3,6.9,3,11
		c0,8-4.1,13.8-12.4,17.3c5.9,1.1,10.7,3.6,14.2,7.3c3.5,3.8,5.3,8.3,5.3,13.6c0,4.2-1.1,7.9-3.3,11.2c-2.1,3.2-5.2,5.9-9.4,8
		C80.6,88.1,75.3,89.1,69.1,89.1 M63.2,17.9h-10v24.5H61c6.2,0,10.7-1.2,13.3-3.6c2.6-2.3,3.9-5.5,3.9-9.3
		C78.1,21.8,73.2,17.9,63.2,17.9 M64.1,52.8H53.2v25.9h11.5c6.3,0,10.7-0.5,12.9-1.5c2.3-1,4.1-2.6,5.5-4.6c1.3-2.1,2-4.4,2-6.7
		c0-2.5-0.7-4.8-2.2-6.8c-1.5-2.1-3.5-3.6-6.3-4.7C74.1,53.3,69.9,52.8,64.1,52.8"/>
	<polygon class="st0" points="157.9,7.5 172.1,7.5 142,45.9 142,89.1 130,89.1 130,45.9 99.8,7.5 114,7.5 135.8,35.6 	"/>
</g>
</svg>
